<?xml version="1.0" encoding="UTF-8"?>
<svg width="52px" height="49px" viewBox="0 0 52 49" version="1.1" xmlns="http://www.w3.org/2000/svg" xmlns:xlink="http://www.w3.org/1999/xlink">
    <!-- Generator: Sketch 51.3 (57544) - http://www.bohemiancoding.com/sketch -->
    <title>Group 16</title>
    <desc>Created with Sketch.</desc>
    <defs></defs>
    <g id="Mockup" stroke="none" stroke-width="1" fill="none" fill-rule="evenodd">
        <g id="Home" transform="translate(-16.000000, -8.000000)">
            <g id="Group-16" transform="translate(16.000000, 10.000000)">
                <polyline id="Fill-1" fill="#FEFEFE" points="45 16.4959239 45 15 38 15 38 21 45 21 45 19.5040761"></polyline>
                <polyline id="Fill-2" fill="#FEFEFE" points="45 28.503055 45 27 38 27 38 33 45 33 45 31.5050916"></polyline>
                <polygon id="Fill-3" fill="#FEFEFE" points="38 39 38 45 45 45 45 43.5010183 45 40.4949084 45 39"></polygon>
                <polygon id="Fill-4" fill="#FEFEFE" points="0 16 0 17.4918478 0 20.5040761 0 22 7 22 7 16"></polygon>
                <polygon id="Fill-5" fill="#FEFEFE" points="0 28 0 29.5111713 0 32.4888287 0 34 7 34 7 28"></polygon>
                <polygon id="Fill-6" fill="#FEFEFE" points="0 40 0 41.4949084 0 44.4847251 0 46 7 46 7 40"></polygon>
                <g id="Group-13" transform="translate(8.000000, 0.000000)">
                    <path d="M5.8044,21.3115385 C4.4604,21.3115385 3.38749091,20.2153846 3.38749091,18.8615385 C3.38749091,17.5230769 4.4604,16.4269231 5.8044,16.4269231 C7.14458182,16.4269231 8.23276364,17.5076923 8.23276364,18.8615385 C8.23276364,20.2153846 7.14458182,21.3115385 5.8044,21.3115385 M27.7436727,13.2115385 L1.76094545,13.2115385 C1.11949091,13.2115385 0.5964,13.7384615 0.5964,14.3846154 L0.5964,45.8307692 C0.5964,46.4769231 1.11949091,47 1.76094545,47 L27.7436727,47 C28.3851273,47 28.9044,46.4769231 28.9044,45.8307692 L28.9044,14.3846154 C28.9044,13.7384615 28.3851273,13.2115385 27.7436727,13.2115385" id="Fill-7" fill="#FEFEFE"></path>
                    <path d="M41.6349818,13.2115385 C41.6349818,20.2961538 35.9344364,26.0384615 28.9051636,26.0384615 C21.8720727,26.0384615 16.1715273,20.2961538 16.1715273,13.2115385 C16.1715273,6.12692308 21.8720727,0.384615385 28.9051636,0.384615385 C35.9344364,0.384615385 41.6349818,6.12692308 41.6349818,13.2115385" id="Fill-9" fill="#FEFEFE"></path>
                    <path d="M42.7599818,13.2115385 C42.7599818,20.9149968 36.5582453,27.1634615 28.9051636,27.1634615 C21.2489067,27.1634615 15.0465273,20.9156434 15.0465273,13.2115385 C15.0465273,5.50743353 21.2489067,-0.740384615 28.9051636,-0.740384615 C36.5582453,-0.740384615 42.7599818,5.50808008 42.7599818,13.2115385 Z" id="Stroke-11" stroke="#2C2C2C" stroke-width="2.25"></path>
                </g>
                <path d="M31.5305715,20.5078043 L31.5305715,17.0209095 C31.6990267,16.9000204 31.8749688,16.7791313 32.0471675,16.6582422 C32.4926379,16.3446861 32.9455952,16.0349078 33.3985525,15.7251295 C33.6456202,15.5551292 33.9001747,15.3851289 34.1547292,15.2113508 L34.1959072,15.1811285 C34.2295982,15.1584618 34.2595458,15.1395729 34.2894934,15.1169062 C34.3156975,15.1017951 34.3381582,15.0866839 34.3606189,15.0715728 C34.5103569,14.9657948 34.6600948,14.8600169 34.8135762,14.7542389 C34.8360369,14.7391278 34.8622411,14.7240166 34.8847018,14.7051277 L34.9183928,14.682461 C34.9221363,14.6786832 34.9296232,14.6749054 34.9333666,14.6711277 C35.2440729,14.4520162 35.5585226,14.2291269 35.8804592,13.9986821 L32.2343399,17.6744661 L31.5305715,20.5078043 Z M42.0833541,5.32866723 C41.798852,5.61955662 38.9163963,8.52089492 38.6580983,8.76645089 C36.3072124,10.9991214 34.0836037,12.529124 31.9236336,14.0062376 C30.9503369,14.6749054 30.0331919,15.3057954 29.1160469,15.9895744 L29,16.0726856 L29,21.3200279 C29,21.5164727 29.1385076,21.6826952 29.3369104,21.7166953 C29.5315698,21.7506953 29.7149988,21.6411396 29.7898677,21.4295837 L30.7519341,17.5875771 C30.8268031,17.5309103 30.8941852,17.4817991 30.9690542,17.4289102 L30.9690542,21.5958062 C30.9690542,21.792251 31.1150487,21.9546957 31.3209384,21.9924735 C31.5343149,22.0302514 31.7327177,21.9244734 31.8075867,21.7053619 L32.743449,17.9653555 L40.2303469,10.4060093 L40.4212628,10.1944533 L40.4175193,10.1906756 C41.4245071,9.19334051 43.3785875,7.23267049 43.6743199,6.93422553 C43.8839531,6.71889183 44,6.43555801 44,6.12955749 C44,5.82733475 43.8839531,5.54400093 43.6743199,5.32866723 C43.2363364,4.89044426 42.5250811,4.89044426 42.0833541,5.32866723 Z" id="Fill-14" fill="#1D1D1B"></path>
            </g>
        </g>
    </g>
</svg>